<?xml version="1.0" encoding="utf-8"?>
<!-- Generator: Adobe Illustrator 15.0.0, SVG Export Plug-In . SVG Version: 6.00 Build 0)  -->
<!DOCTYPE svg PUBLIC "-//W3C//DTD SVG 1.1//EN" "http://www.w3.org/Graphics/SVG/1.1/DTD/svg11.dtd">
<svg version="1.1"
	 id="svg8" inkscape:version="0.92.5 (2060ec1f9f, 2020-04-08)" sodipodi:docname="fime_key.svg" inkscape:export-ydpi="300.01099" inkscape:export-xdpi="300.01099" xmlns:osb="http://www.openswatchbook.org/uri/2009/osb" xmlns:dc="http://purl.org/dc/elements/1.1/" xmlns:cc="http://creativecommons.org/ns#" xmlns:rdf="http://www.w3.org/1999/02/22-rdf-syntax-ns#" xmlns:svg="http://www.w3.org/2000/svg" xmlns:sodipodi="http://sodipodi.sourceforge.net/DTD/sodipodi-0.dtd" xmlns:inkscape="http://www.inkscape.org/namespaces/inkscape"
	 xmlns="http://www.w3.org/2000/svg" xmlns:xlink="http://www.w3.org/1999/xlink" x="0px" y="0px" width="181.418px"
	 height="181.418px" viewBox="0 0 181.418 181.418" enable-background="new 0 0 181.418 181.418" xml:space="preserve">
<sodipodi:namedview  id="base" inkscape:snap-global="false" inkscape:window-y="0" inkscape:window-x="0" inkscape:window-height="1361" inkscape:window-width="2560" inkscape:current-layer="layer1" inkscape:document-units="mm" inkscape:pageshadow="2" inkscape:pageopacity="0.0" showguides="true" showgrid="true" inkscape:cy="106.97406" inkscape:cx="100.58811" inkscape:zoom="1.8748427" borderopacity="1.0" bordercolor="#666666" pagecolor="#ffffff" inkscape:window-maximized="1">
	<inkscape:grid  type="xygrid" id="grid30"></inkscape:grid>
</sodipodi:namedview>
<g id="layer2" transform="translate(0,-233)" inkscape:groupmode="layer" inkscape:label="Layer 2">
	<path id="rect891" fill="#9B9C9F" stroke="#9B9C9F" stroke-width="1.4346" d="M41.714,300.43h100.235
		c19.783,0,35.73,12.864,35.618,28.733l-0.369,52.018c-0.112,15.869-16.241,28.733-36.024,28.733H40.938
		c-19.784,0-35.73-12.864-35.618-28.733l0.368-52.018C5.801,313.295,21.929,300.43,41.714,300.43z"/>
</g>
<g id="layer1" transform="translate(0,-233)" inkscape:groupmode="layer" inkscape:label="Layer 1">
	<path id="rect889" fill="#B7BCC4" d="M26.188,239.316h129.04c12.522,0,22.674,10.354,22.674,23.128v116.529
		c0,12.773-10.151,23.128-22.674,23.128H26.188c-12.521,0-22.673-10.354-22.673-23.128V262.444
		C3.515,249.671,13.667,239.316,26.188,239.316z"/>
</g>
</svg>
